<svg version="1.1" xmlns="http://www.w3.org/2000/svg" xmlns:xlink="http://www.w3.org/1999/xlink" width="758.33056640625" height="721"><defs/><g><g transform="translate(-29,2) scale(1,1)"><rect fill="#C0C0C0" stroke="none" x="530" y="327" width="254.33056640625" height="77" opacity="0.2"/></g><g transform="translate(-29,2) scale(1,1)"><rect fill="#ffffff" stroke="none" x="523" y="320" width="254.33056640625" height="77"/></g><g transform="translate(-29,2) scale(1,1)"><path fill="none" stroke="#000000" d="M 523 320 L 777.33056640625 320 L 777.33056640625 397 L 523 397 L 523 320 Z Z" stroke-miterlimit="10"/></g><g transform="translate(-29,2) scale(1,1)"><path fill="none" stroke="#000000" d="M 523 345 L 777.33056640625 345" stroke-miterlimit="10"/></g><g transform="translate(-29,2) scale(1,1)"><g><path fill="none" stroke="none"/><text fill="#000000" stroke="none" font-family="Arial" font-size="13px" font-style="normal" font-weight="bold" text-decoration="none" x="599.948974609375" y="339.5">ProgramInterface</text></g></g><g transform="translate(-29,2) scale(1,1)"><g><path fill="none" stroke="none"/><text fill="#000000" stroke="none" font-family="Arial" font-size="13px" font-style="normal" font-weight="normal" text-decoration="none" x="528" y="362.5">+title: String {unique}</text></g></g><g transform="translate(-29,2) scale(1,1)"><g><path fill="none" stroke="none"/><text fill="#000000" stroke="none" font-family="Arial" font-size="13px" font-style="normal" font-weight="normal" text-decoration="none" x="528" y="377.5">+environment: ExecutionEnvironment[0..1]</text></g></g><g transform="translate(-29,2) scale(1,1)"><g><path fill="none" stroke="none"/><text fill="#000000" stroke="none" font-family="Arial" font-size="13px" font-style="normal" font-weight="normal" text-decoration="none" x="528" y="392.5">+arguments: ProgramArgument[1..*]</text></g></g><g transform="translate(-29,2) scale(1,1)"><rect fill="#C0C0C0" stroke="none" x="530" y="183" width="254.33056640625" height="77" opacity="0.2"/></g><g transform="translate(-29,2) scale(1,1)"><rect fill="#ffffff" stroke="none" x="523" y="176" width="254.33056640625" height="77"/></g><g transform="translate(-29,2) scale(1,1)"><path fill="none" stroke="#000000" d="M 523 176 L 777.33056640625 176 L 777.33056640625 253 L 523 253 L 523 176 Z Z" stroke-miterlimit="10"/></g><g transform="translate(-29,2) scale(1,1)"><path fill="none" stroke="#000000" d="M 523 201 L 777.33056640625 201" stroke-miterlimit="10"/></g><g transform="translate(-29,2) scale(1,1)"><g><path fill="none" stroke="none"/><text fill="#000000" stroke="none" font-family="Arial" font-size="13px" font-style="normal" font-weight="bold" text-decoration="none" x="625.2412109375" y="195.5">Program</text></g></g><g transform="translate(-29,2) scale(1,1)"><g><path fill="none" stroke="none"/><text fill="#000000" stroke="none" font-family="Arial" font-size="13px" font-style="normal" font-weight="normal" text-decoration="none" x="528" y="218.5">+title</text></g></g><g transform="translate(-29,2) scale(1,1)"><g><path fill="none" stroke="none"/><text fill="#000000" stroke="none" font-family="Arial" font-size="13px" font-style="normal" font-weight="normal" text-decoration="none" x="528" y="233.5">+code</text></g></g><g transform="translate(-29,2) scale(1,1)"><g><path fill="none" stroke="none"/><text fill="#000000" stroke="none" font-family="Arial" font-size="13px" font-style="normal" font-weight="normal" text-decoration="none" x="528" y="248.5">+environment: ExecutionEnvironment[0..1]</text></g></g><g transform="translate(-29,2) scale(1,1)"><rect fill="#C0C0C0" stroke="none" x="530" y="15" width="254.33056640625" height="130" opacity="0.2"/></g><g transform="translate(-29,2) scale(1,1)"><rect fill="#ffffff" stroke="none" x="523" y="8" width="254.33056640625" height="130"/></g><g transform="translate(-29,2) scale(1,1)"><path fill="none" stroke="#000000" d="M 523 8 L 777.33056640625 8 L 777.33056640625 138 L 523 138 L 523 8 Z Z" stroke-miterlimit="10"/></g><g transform="translate(-29,2) scale(1,1)"><path fill="none" stroke="#000000" d="M 523 33 L 777.33056640625 33" stroke-miterlimit="10"/></g><g transform="translate(-29,2) scale(1,1)"><path fill="none" stroke="#000000" d="M 523 116 L 777.33056640625 116" stroke-miterlimit="10"/></g><g transform="translate(-29,2) scale(1,1)"><g><path fill="none" stroke="none"/><text fill="#000000" stroke="none" font-family="Arial" font-size="13px" font-style="normal" font-weight="bold" text-decoration="none" x="603.560791015625" y="27.5">ProgramVersion</text></g></g><g transform="translate(-29,2) scale(1,1)"><g><path fill="none" stroke="none"/><text fill="#000000" stroke="none" font-family="Arial" font-size="13px" font-style="normal" font-weight="normal" text-decoration="none" x="528" y="50.5">+title: String</text></g></g><g transform="translate(-29,2) scale(1,1)"><g><path fill="none" stroke="none"/><text fill="#000000" stroke="none" font-family="Arial" font-size="13px" font-style="normal" font-weight="normal" text-decoration="none" x="528" y="65.5">+description: String</text></g></g><g transform="translate(-29,2) scale(1,1)"><g><path fill="none" stroke="none"/><text fill="#000000" stroke="none" font-family="Arial" font-size="13px" font-style="normal" font-weight="normal" text-decoration="none" x="528" y="80.5">+environment: ExecutionEnvironment[0..1]</text></g></g><g transform="translate(-29,2) scale(1,1)"><g><path fill="none" stroke="none"/><text fill="#000000" stroke="none" font-family="Arial" font-size="13px" font-style="normal" font-weight="normal" text-decoration="none" x="528" y="95.5">+entry_point: Node</text></g></g><g transform="translate(-29,2) scale(1,1)"><g><path fill="none" stroke="none"/><text fill="#000000" stroke="none" font-family="Arial" font-size="13px" font-style="normal" font-weight="normal" text-decoration="none" x="528" y="110.5">+is_default: Boolean = false</text></g></g><g transform="translate(-29,2) scale(1,1)"><g><path fill="none" stroke="none"/><text fill="#000000" stroke="none" font-family="Arial" font-size="13px" font-style="normal" font-weight="normal" text-decoration="none" x="528" y="133.5">+execute()</text></g></g><g transform="translate(-29,2) scale(1,1)"><path fill="none" stroke="#000000" d="M 650 254 L 650 319" stroke-miterlimit="10"/></g><g transform="translate(-29,2) scale(1,1)"><path fill="#000000" stroke="none" d="M 645.790482243984 308.83732514237585 L 650 319 L 654.209517756016 308.83732514237585 L 650 297"/></g><g transform="translate(-29,2) scale(1,1)"><path fill="none" stroke="#000000" d="M 645.790482243984 308.83732514237585 L 650 319 L 654.209517756016 308.83732514237585 L 650 297 L 645.790482243984 308.83732514237585" stroke-miterlimit="10"/></g><g transform="translate(-29,2) scale(1,1)"><path fill="none" stroke="#000000" d="M 650 139 L 650 175" stroke-miterlimit="10"/></g><g transform="translate(-29,2) scale(1,1)"><path fill="#000000" stroke="none" d="M 645.790482243984 164.83732514237585 L 650 175 L 654.209517756016 164.83732514237585 L 650 153"/></g><g transform="translate(-29,2) scale(1,1)"><path fill="none" stroke="#000000" d="M 645.790482243984 164.83732514237585 L 650 175 L 654.209517756016 164.83732514237585 L 650 153 L 645.790482243984 164.83732514237585" stroke-miterlimit="10"/></g><g transform="translate(-29,2) scale(1,1)"><rect fill="#C0C0C0" stroke="none" x="46" y="175" width="408.60400390625" height="152" opacity="0.2"/></g><g transform="translate(-29,2) scale(1,1)"><rect fill="#ffffff" stroke="none" x="39" y="168" width="408.60400390625" height="152"/></g><g transform="translate(-29,2) scale(1,1)"><path fill="none" stroke="#000000" d="M 39 168 L 447.60400390625 168 L 447.60400390625 320 L 39 320 L 39 168 Z Z" stroke-miterlimit="10"/></g><g transform="translate(-29,2) scale(1,1)"><path fill="none" stroke="#000000" d="M 39 193 L 447.60400390625 193" stroke-miterlimit="10"/></g><g transform="translate(-29,2) scale(1,1)"><g><path fill="none" stroke="none"/><text fill="#000000" stroke="none" font-family="Arial" font-size="13px" font-style="normal" font-weight="bold" text-decoration="none" x="178.26708984375" y="187.5">ExecutionEnvironment</text></g></g><g transform="translate(-29,2) scale(1,1)"><g><path fill="none" stroke="none"/><text fill="#000000" stroke="none" font-family="Arial" font-size="13px" font-style="normal" font-weight="normal" text-decoration="none" x="44" y="210.5">+title: String {unique}</text></g></g><g transform="translate(-29,2) scale(1,1)"><g><path fill="none" stroke="none"/><text fill="#000000" stroke="none" font-family="Arial" font-size="13px" font-style="normal" font-weight="normal" text-decoration="none" x="44" y="225.5">+description: String</text></g></g><g transform="translate(-29,2) scale(1,1)"><g><path fill="none" stroke="none"/><text fill="#000000" stroke="none" font-family="Arial" font-size="13px" font-style="normal" font-weight="normal" text-decoration="none" x="44" y="240.5">+libraries: FunctionLibrary[0..*]</text></g></g><g transform="translate(-29,2) scale(1,1)"><g><path fill="none" stroke="none"/><text fill="#000000" stroke="none" font-family="Arial" font-size="13px" font-style="normal" font-weight="normal" text-decoration="none" x="44" y="255.5">+debug: Boolean = false</text></g></g><g transform="translate(-29,2) scale(1,1)"><g><path fill="none" stroke="none"/><text fill="#000000" stroke="none" font-family="Arial" font-size="13px" font-style="normal" font-weight="normal" text-decoration="none" x="44" y="270.5">+log: Boolean = false</text></g></g><g transform="translate(-29,2) scale(1,1)"><g><path fill="none" stroke="none"/><text fill="#000000" stroke="none" font-family="Arial" font-size="13px" font-style="normal" font-weight="normal" text-decoration="none" x="44" y="285.5">+cache: Boolean = true</text></g></g><g transform="translate(-29,2) scale(1,1)"><g><path fill="none" stroke="none"/><text fill="#000000" stroke="none" font-family="Arial" font-size="13px" font-style="normal" font-weight="normal" text-decoration="none" x="44" y="300.5">+exception_handling_policy: ExceptionHandlingPolicy = INTERRUPT</text></g></g><g transform="translate(-29,2) scale(1,1)"><path fill="none" stroke="#000000" d="M 522 322 L 449 302" stroke-miterlimit="10"/></g><g transform="translate(-29,2) scale(1,1)"><path fill="#FFFFFF" stroke="none" d="M 459.9137785262554 300.62543160233963 L 449 302 L 457.6891734394737 308.74524016909294 L 470.2180823104116 307.8131732357292"/></g><g transform="translate(-29,2) scale(1,1)"><path fill="none" stroke="#000000" d="M 459.9137785262554 300.62543160233963 L 449 302 L 457.6891734394737 308.74524016909294 L 470.2180823104116 307.8131732357292 L 459.9137785262554 300.62543160233963" stroke-miterlimit="10"/></g><g transform="translate(-29,2) scale(1,1)"><path fill="none" stroke="#000000" d="M 522 223 L 449 229" stroke-miterlimit="10"/></g><g transform="translate(-29,2) scale(1,1)"><path fill="#FFFFFF" stroke="none" d="M 458.78369589679636 223.97214811286068 L 449 229 L 459.47334587788947 232.3628895494939 L 470.92606401791716 227.19785775195203"/></g><g transform="translate(-29,2) scale(1,1)"><path fill="none" stroke="#000000" d="M 458.78369589679636 223.97214811286068 L 449 229 L 459.47334587788947 232.3628895494939 L 470.92606401791716 227.19785775195203 L 458.78369589679636 223.97214811286068" stroke-miterlimit="10"/></g><g transform="translate(-29,2) scale(1,1)"><rect fill="#C0C0C0" stroke="none" x="168" y="399" width="165.025390625" height="90" opacity="0.2"/></g><g transform="translate(-29,2) scale(1,1)"><rect fill="#ffffff" stroke="none" x="161" y="392" width="165.025390625" height="90"/></g><g transform="translate(-29,2) scale(1,1)"><path fill="none" stroke="#000000" d="M 161 392 L 326.025390625 392 L 326.025390625 482 L 161 482 L 161 392 Z Z" stroke-miterlimit="10"/></g><g transform="translate(-29,2) scale(1,1)"><path fill="none" stroke="#000000" d="M 161 430 L 326.025390625 430" stroke-miterlimit="10"/></g><g transform="translate(-29,2) scale(1,1)"><g><path fill="none" stroke="none"/><text fill="#000000" stroke="none" font-family="Arial" font-size="13px" font-style="normal" font-weight="normal" text-decoration="none" x="200.148681640625" y="409.5">«enumeration»</text></g></g><g transform="translate(-29,2) scale(1,1)"><g><path fill="none" stroke="none"/><text fill="#000000" stroke="none" font-family="Arial" font-size="13px" font-style="normal" font-weight="bold" text-decoration="none" x="171.971435546875" y="424.5">ExceptionHandlingPolicy</text></g></g><g transform="translate(-29,2) scale(1,1)"><g><path fill="none" stroke="none"/><text fill="#000000" stroke="none" font-family="Arial" font-size="13px" font-style="normal" font-weight="normal" text-decoration="none" x="166" y="447.5">IGNORE</text></g></g><g transform="translate(-29,2) scale(1,1)"><g><path fill="none" stroke="none"/><text fill="#000000" stroke="none" font-family="Arial" font-size="13px" font-style="normal" font-weight="normal" text-decoration="none" x="166" y="462.5">INTERRUPT</text></g></g><g transform="translate(-29,2) scale(1,1)"><g><path fill="none" stroke="none"/><text fill="#000000" stroke="none" font-family="Arial" font-size="13px" font-style="normal" font-weight="normal" text-decoration="none" x="166" y="477.5">RAISE</text></g></g><g transform="translate(-29,2) scale(1,1)"><path fill="none" stroke="#000000" d="M 243 391 L 243 321" stroke-miterlimit="10"/></g><g transform="translate(-29,2) scale(1,1)"><path fill="#FFFFFF" stroke="none" d="M 247.209517756016 331.16267485762415 L 243 321 L 238.790482243984 331.16267485762415 L 243 343"/></g><g transform="translate(-29,2) scale(1,1)"><path fill="none" stroke="#000000" d="M 247.209517756016 331.16267485762415 L 243 321 L 238.790482243984 331.16267485762415 L 243 343 L 247.209517756016 331.16267485762415" stroke-miterlimit="10"/></g><g transform="translate(-29,2) scale(1,1)"><g><path fill="none" stroke="none"/><text fill="#000000" stroke="none" font-family="Arial" font-size="13px" font-style="normal" font-weight="normal" text-decoration="none" x="251.726806640625" y="375.5">1</text></g></g><g transform="translate(-29,2) scale(1,1)"><path fill="none" stroke="#000000" d="M 522 127 L 426 167" stroke-miterlimit="10"/></g><g transform="translate(-29,2) scale(1,1)"><path fill="#FFFFFF" stroke="none" d="M 433.7618853470315 159.20557020305287 L 426 167 L 436.9999759285823 166.97698759877468 L 446.3076923076923 158.53846153846155"/></g><g transform="translate(-29,2) scale(1,1)"><path fill="none" stroke="#000000" d="M 433.7618853470315 159.20557020305287 L 426 167 L 436.9999759285823 166.97698759877468 L 446.3076923076923 158.53846153846155 L 433.7618853470315 159.20557020305287" stroke-miterlimit="10"/></g><g transform="translate(-29,2) scale(1,1)"><rect fill="#C0C0C0" stroke="none" x="147" y="15" width="206.640625" height="87" opacity="0.2"/></g><g transform="translate(-29,2) scale(1,1)"><rect fill="#ffffff" stroke="none" x="140" y="8" width="206.640625" height="87"/></g><g transform="translate(-29,2) scale(1,1)"><path fill="none" stroke="#000000" d="M 140 8 L 346.640625 8 L 346.640625 95 L 140 95 L 140 8 Z Z" stroke-miterlimit="10"/></g><g transform="translate(-29,2) scale(1,1)"><path fill="none" stroke="#000000" d="M 140 33 L 346.640625 33" stroke-miterlimit="10"/></g><g transform="translate(-29,2) scale(1,1)"><g><path fill="none" stroke="none"/><text fill="#000000" stroke="none" font-family="Arial" font-size="13px" font-style="normal" font-weight="bold" text-decoration="none" x="198.521728515625" y="27.5">FunctionLibrary</text></g></g><g transform="translate(-29,2) scale(1,1)"><g><path fill="none" stroke="none"/><text fill="#000000" stroke="none" font-family="Arial" font-size="13px" font-style="normal" font-weight="normal" text-decoration="none" x="145" y="50.5">+title: String {unique}</text></g></g><g transform="translate(-29,2) scale(1,1)"><g><path fill="none" stroke="none"/><text fill="#000000" stroke="none" font-family="Arial" font-size="13px" font-style="normal" font-weight="normal" text-decoration="none" x="145" y="65.5">+functions: FunctionDefinition[0..*]</text></g></g><g transform="translate(-29,2) scale(1,1)"><path fill="none" stroke="#000000" d="M 243 96 L 243 167" stroke-miterlimit="10"/></g><g transform="translate(-29,2) scale(1,1)"><path fill="#FFFFFF" stroke="none" d="M 238.790482243984 156.83732514237585 L 243 167 L 247.209517756016 156.83732514237585 L 243 145"/></g><g transform="translate(-29,2) scale(1,1)"><path fill="none" stroke="#000000" d="M 238.790482243984 156.83732514237585 L 243 167 L 247.209517756016 156.83732514237585 L 243 145 L 238.790482243984 156.83732514237585" stroke-miterlimit="10"/></g><g transform="translate(-29,2) scale(1,1)"><g><path fill="none" stroke="none"/><text fill="#000000" stroke="none" font-family="Arial" font-size="13px" font-style="normal" font-weight="normal" text-decoration="none" x="220.5" y="123.5">0..*</text></g></g><g transform="translate(-29,2) scale(1,1)"><g><path fill="none" stroke="none"/><text fill="#000000" stroke="none" font-family="Arial" font-size="13px" font-style="normal" font-weight="normal" text-decoration="none" x="220.5" y="151.5">0..*</text></g></g><g transform="translate(-29,2) scale(1,1)"><rect fill="#C0C0C0" stroke="none" x="563" y="479" width="188.5498046875" height="77" opacity="0.2"/></g><g transform="translate(-29,2) scale(1,1)"><rect fill="#ffffff" stroke="none" x="556" y="472" width="188.5498046875" height="77"/></g><g transform="translate(-29,2) scale(1,1)"><path fill="none" stroke="#000000" d="M 556 472 L 744.5498046875 472 L 744.5498046875 549 L 556 549 L 556 472 Z Z" stroke-miterlimit="10"/></g><g transform="translate(-29,2) scale(1,1)"><path fill="none" stroke="#000000" d="M 556 497 L 744.5498046875 497" stroke-miterlimit="10"/></g><g transform="translate(-29,2) scale(1,1)"><g><path fill="none" stroke="none"/><text fill="#000000" stroke="none" font-family="Arial" font-size="13px" font-style="normal" font-weight="bold" text-decoration="none" x="597.17041015625" y="491.5">ProgramArgument</text></g></g><g transform="translate(-29,2) scale(1,1)"><g><path fill="none" stroke="none"/><text fill="#000000" stroke="none" font-family="Arial" font-size="13px" font-style="normal" font-weight="normal" text-decoration="none" x="561" y="514.5">+name: String</text></g></g><g transform="translate(-29,2) scale(1,1)"><g><path fill="none" stroke="none"/><text fill="#000000" stroke="none" font-family="Arial" font-size="13px" font-style="normal" font-weight="normal" text-decoration="none" x="561" y="529.5">+content_type: ContentType</text></g></g><g transform="translate(-29,2) scale(1,1)"><g><path fill="none" stroke="none"/><text fill="#000000" stroke="none" font-family="Arial" font-size="13px" font-style="normal" font-weight="normal" text-decoration="none" x="561" y="544.5">+fields: ProgramArgumentField</text></g></g><g transform="translate(-29,2) scale(1,1)"><path fill="none" stroke="#000000" d="M 650 471 L 650 398" stroke-miterlimit="10"/></g><g transform="translate(-29,2) scale(1,1)"><path fill="#000000" stroke="none" d="M 654.209517756016 408.16267485762415 L 650 398 L 645.790482243984 408.16267485762415 L 650 420"/></g><g transform="translate(-29,2) scale(1,1)"><path fill="none" stroke="#000000" d="M 654.209517756016 408.16267485762415 L 650 398 L 645.790482243984 408.16267485762415 L 650 420 L 654.209517756016 408.16267485762415" stroke-miterlimit="10"/></g><g transform="translate(-29,2) scale(1,1)"><g><path fill="none" stroke="none"/><text fill="#000000" stroke="none" font-family="Arial" font-size="13px" font-style="normal" font-weight="normal" text-decoration="none" x="600.5" y="432.5">+arguments</text></g></g><g transform="translate(-29,2) scale(1,1)"><g><path fill="none" stroke="none"/><text fill="#000000" stroke="none" font-family="Arial" font-size="13px" font-style="normal" font-weight="normal" text-decoration="none" x="652.5" y="455.5">1..*</text></g></g><g transform="translate(-29,2) scale(1,1)"><rect fill="#C0C0C0" stroke="none" x="543" y="639" width="229.53662109375" height="77" opacity="0.2"/></g><g transform="translate(-29,2) scale(1,1)"><rect fill="#ffffff" stroke="none" x="536" y="632" width="229.53662109375" height="77"/></g><g transform="translate(-29,2) scale(1,1)"><path fill="none" stroke="#000000" d="M 536 632 L 765.53662109375 632 L 765.53662109375 709 L 536 709 L 536 632 Z Z" stroke-miterlimit="10"/></g><g transform="translate(-29,2) scale(1,1)"><path fill="none" stroke="#000000" d="M 536 657 L 765.53662109375 657" stroke-miterlimit="10"/></g><g transform="translate(-29,2) scale(1,1)"><g><path fill="none" stroke="none"/><text fill="#000000" stroke="none" font-family="Arial" font-size="13px" font-style="normal" font-weight="bold" text-decoration="none" x="583.5751953125" y="651.5">ProgramArgumentField</text></g></g><g transform="translate(-29,2) scale(1,1)"><g><path fill="none" stroke="none"/><text fill="#000000" stroke="none" font-family="Arial" font-size="13px" font-style="normal" font-weight="normal" text-decoration="none" x="541" y="674.5">+name: String</text></g></g><g transform="translate(-29,2) scale(1,1)"><g><path fill="none" stroke="none"/><text fill="#000000" stroke="none" font-family="Arial" font-size="13px" font-style="normal" font-weight="normal" text-decoration="none" x="541" y="689.5">+title: String</text></g></g><g transform="translate(-29,2) scale(1,1)"><g><path fill="none" stroke="none"/><text fill="#000000" stroke="none" font-family="Arial" font-size="13px" font-style="normal" font-weight="normal" text-decoration="none" x="541" y="704.5">+variable_definition: VariableDefinition</text></g></g><g transform="translate(-29,2) scale(1,1)"><path fill="none" stroke="#000000" d="M 650 631 L 650 550" stroke-miterlimit="10"/></g><g transform="translate(-29,2) scale(1,1)"><path fill="#000000" stroke="none" d="M 654.209517756016 560.1626748576241 L 650 550 L 645.790482243984 560.1626748576241 L 650 572"/></g><g transform="translate(-29,2) scale(1,1)"><path fill="none" stroke="#000000" d="M 654.209517756016 560.1626748576241 L 650 550 L 645.790482243984 560.1626748576241 L 650 572 L 654.209517756016 560.1626748576241" stroke-miterlimit="10"/></g></g></svg>
