<svg version="1.1" xmlns="http://www.w3.org/2000/svg" xmlns:xlink="http://www.w3.org/1999/xlink" width="758.33056640625" height="494"><defs/><g><g transform="translate(-316,-69) scale(1,1)"><rect fill="#C0C0C0" stroke="none" x="817" y="398" width="254.33056640625" height="77" opacity="0.2"/></g><g transform="translate(-316,-69) scale(1,1)"><rect fill="#ffffff" stroke="none" x="810" y="391" width="254.33056640625" height="77"/></g><g transform="translate(-316,-69) scale(1,1)"><path fill="none" stroke="#000000" d="M 810 391 L 1064.33056640625 391 L 1064.33056640625 468 L 810 468 L 810 391 Z Z" stroke-miterlimit="10"/></g><g transform="translate(-316,-69) scale(1,1)"><path fill="none" stroke="#000000" d="M 810 416 L 1064.33056640625 416" stroke-miterlimit="10"/></g><g transform="translate(-316,-69) scale(1,1)"><g><path fill="none" stroke="none"/><text fill="#000000" stroke="none" font-family="Arial" font-size="13px" font-style="normal" font-weight="bold" text-decoration="none" x="886.948974609375" y="410.5">ProgramInterface</text></g></g><g transform="translate(-316,-69) scale(1,1)"><g><path fill="none" stroke="none"/><text fill="#000000" stroke="none" font-family="Arial" font-size="13px" font-style="normal" font-weight="normal" text-decoration="none" x="815" y="433.5">+title: String {unique}</text></g></g><g transform="translate(-316,-69) scale(1,1)"><g><path fill="none" stroke="none"/><text fill="#000000" stroke="none" font-family="Arial" font-size="13px" font-style="normal" font-weight="normal" text-decoration="none" x="815" y="448.5">+environment: ExecutionEnvironment[0..1]</text></g></g><g transform="translate(-316,-69) scale(1,1)"><g><path fill="none" stroke="none"/><text fill="#000000" stroke="none" font-family="Arial" font-size="13px" font-style="normal" font-weight="normal" text-decoration="none" x="815" y="463.5">+arguments: ProgramArgument[1..*]</text></g></g><g transform="translate(-316,-69) scale(1,1)"><rect fill="#C0C0C0" stroke="none" x="817" y="254" width="254.33056640625" height="77" opacity="0.2"/></g><g transform="translate(-316,-69) scale(1,1)"><rect fill="#ffffff" stroke="none" x="810" y="247" width="254.33056640625" height="77"/></g><g transform="translate(-316,-69) scale(1,1)"><path fill="none" stroke="#000000" d="M 810 247 L 1064.33056640625 247 L 1064.33056640625 324 L 810 324 L 810 247 Z Z" stroke-miterlimit="10"/></g><g transform="translate(-316,-69) scale(1,1)"><path fill="none" stroke="#000000" d="M 810 272 L 1064.33056640625 272" stroke-miterlimit="10"/></g><g transform="translate(-316,-69) scale(1,1)"><g><path fill="none" stroke="none"/><text fill="#000000" stroke="none" font-family="Arial" font-size="13px" font-style="normal" font-weight="bold" text-decoration="none" x="912.2412109375" y="266.5">Program</text></g></g><g transform="translate(-316,-69) scale(1,1)"><g><path fill="none" stroke="none"/><text fill="#000000" stroke="none" font-family="Arial" font-size="13px" font-style="normal" font-weight="normal" text-decoration="none" x="815" y="289.5">+title</text></g></g><g transform="translate(-316,-69) scale(1,1)"><g><path fill="none" stroke="none"/><text fill="#000000" stroke="none" font-family="Arial" font-size="13px" font-style="normal" font-weight="normal" text-decoration="none" x="815" y="304.5">+code</text></g></g><g transform="translate(-316,-69) scale(1,1)"><g><path fill="none" stroke="none"/><text fill="#000000" stroke="none" font-family="Arial" font-size="13px" font-style="normal" font-weight="normal" text-decoration="none" x="815" y="319.5">+environment: ExecutionEnvironment[0..1]</text></g></g><g transform="translate(-316,-69) scale(1,1)"><rect fill="#C0C0C0" stroke="none" x="817" y="86" width="254.33056640625" height="130" opacity="0.2"/></g><g transform="translate(-316,-69) scale(1,1)"><rect fill="#ffffff" stroke="none" x="810" y="79" width="254.33056640625" height="130"/></g><g transform="translate(-316,-69) scale(1,1)"><path fill="none" stroke="#000000" d="M 810 79 L 1064.33056640625 79 L 1064.33056640625 209 L 810 209 L 810 79 Z Z" stroke-miterlimit="10"/></g><g transform="translate(-316,-69) scale(1,1)"><path fill="none" stroke="#000000" d="M 810 104 L 1064.33056640625 104" stroke-miterlimit="10"/></g><g transform="translate(-316,-69) scale(1,1)"><path fill="none" stroke="#000000" d="M 810 187 L 1064.33056640625 187" stroke-miterlimit="10"/></g><g transform="translate(-316,-69) scale(1,1)"><g><path fill="none" stroke="none"/><text fill="#000000" stroke="none" font-family="Arial" font-size="13px" font-style="normal" font-weight="bold" text-decoration="none" x="890.560791015625" y="98.5">ProgramVersion</text></g></g><g transform="translate(-316,-69) scale(1,1)"><g><path fill="none" stroke="none"/><text fill="#000000" stroke="none" font-family="Arial" font-size="13px" font-style="normal" font-weight="normal" text-decoration="none" x="815" y="121.5">+title: String</text></g></g><g transform="translate(-316,-69) scale(1,1)"><g><path fill="none" stroke="none"/><text fill="#000000" stroke="none" font-family="Arial" font-size="13px" font-style="normal" font-weight="normal" text-decoration="none" x="815" y="136.5">+description: String</text></g></g><g transform="translate(-316,-69) scale(1,1)"><g><path fill="none" stroke="none"/><text fill="#000000" stroke="none" font-family="Arial" font-size="13px" font-style="normal" font-weight="normal" text-decoration="none" x="815" y="151.5">+environment: ExecutionEnvironment[0..1]</text></g></g><g transform="translate(-316,-69) scale(1,1)"><g><path fill="none" stroke="none"/><text fill="#000000" stroke="none" font-family="Arial" font-size="13px" font-style="normal" font-weight="normal" text-decoration="none" x="815" y="166.5">+entry_point: Node</text></g></g><g transform="translate(-316,-69) scale(1,1)"><g><path fill="none" stroke="none"/><text fill="#000000" stroke="none" font-family="Arial" font-size="13px" font-style="normal" font-weight="normal" text-decoration="none" x="815" y="181.5">+is_default: Boolean = false</text></g></g><g transform="translate(-316,-69) scale(1,1)"><g><path fill="none" stroke="none"/><text fill="#000000" stroke="none" font-family="Arial" font-size="13px" font-style="normal" font-weight="normal" text-decoration="none" x="815" y="204.5">+execute()</text></g></g><g transform="translate(-316,-69) scale(1,1)"><path fill="none" stroke="#000000" d="M 937 325 L 937 390" stroke-miterlimit="10"/></g><g transform="translate(-316,-69) scale(1,1)"><path fill="#000000" stroke="none" d="M 932.790482243984 379.83732514237585 L 937 390 L 941.209517756016 379.83732514237585 L 937 368"/></g><g transform="translate(-316,-69) scale(1,1)"><path fill="none" stroke="#000000" d="M 932.790482243984 379.83732514237585 L 937 390 L 941.209517756016 379.83732514237585 L 937 368 L 932.790482243984 379.83732514237585" stroke-miterlimit="10"/></g><g transform="translate(-316,-69) scale(1,1)"><path fill="none" stroke="#000000" d="M 937 210 L 937 246" stroke-miterlimit="10"/></g><g transform="translate(-316,-69) scale(1,1)"><path fill="#000000" stroke="none" d="M 932.790482243984 235.83732514237585 L 937 246 L 941.209517756016 235.83732514237585 L 937 224"/></g><g transform="translate(-316,-69) scale(1,1)"><path fill="none" stroke="#000000" d="M 932.790482243984 235.83732514237585 L 937 246 L 941.209517756016 235.83732514237585 L 937 224 L 932.790482243984 235.83732514237585" stroke-miterlimit="10"/></g><g transform="translate(-316,-69) scale(1,1)"><rect fill="#C0C0C0" stroke="none" x="333" y="246" width="408.60400390625" height="152" opacity="0.2"/></g><g transform="translate(-316,-69) scale(1,1)"><rect fill="#ffffff" stroke="none" x="326" y="239" width="408.60400390625" height="152"/></g><g transform="translate(-316,-69) scale(1,1)"><path fill="none" stroke="#000000" d="M 326 239 L 734.60400390625 239 L 734.60400390625 391 L 326 391 L 326 239 Z Z" stroke-miterlimit="10"/></g><g transform="translate(-316,-69) scale(1,1)"><path fill="none" stroke="#000000" d="M 326 264 L 734.60400390625 264" stroke-miterlimit="10"/></g><g transform="translate(-316,-69) scale(1,1)"><g><path fill="none" stroke="none"/><text fill="#000000" stroke="none" font-family="Arial" font-size="13px" font-style="normal" font-weight="bold" text-decoration="none" x="465.26708984375" y="258.5">ExecutionEnvironment</text></g></g><g transform="translate(-316,-69) scale(1,1)"><g><path fill="none" stroke="none"/><text fill="#000000" stroke="none" font-family="Arial" font-size="13px" font-style="normal" font-weight="normal" text-decoration="none" x="331" y="281.5">+title: String {unique}</text></g></g><g transform="translate(-316,-69) scale(1,1)"><g><path fill="none" stroke="none"/><text fill="#000000" stroke="none" font-family="Arial" font-size="13px" font-style="normal" font-weight="normal" text-decoration="none" x="331" y="296.5">+description: String</text></g></g><g transform="translate(-316,-69) scale(1,1)"><g><path fill="none" stroke="none"/><text fill="#000000" stroke="none" font-family="Arial" font-size="13px" font-style="normal" font-weight="normal" text-decoration="none" x="331" y="311.5">+libraries: FunctionLibrary[0..*]</text></g></g><g transform="translate(-316,-69) scale(1,1)"><g><path fill="none" stroke="none"/><text fill="#000000" stroke="none" font-family="Arial" font-size="13px" font-style="normal" font-weight="normal" text-decoration="none" x="331" y="326.5">+debug: Boolean = false</text></g></g><g transform="translate(-316,-69) scale(1,1)"><g><path fill="none" stroke="none"/><text fill="#000000" stroke="none" font-family="Arial" font-size="13px" font-style="normal" font-weight="normal" text-decoration="none" x="331" y="341.5">+log: Boolean = false</text></g></g><g transform="translate(-316,-69) scale(1,1)"><g><path fill="none" stroke="none"/><text fill="#000000" stroke="none" font-family="Arial" font-size="13px" font-style="normal" font-weight="normal" text-decoration="none" x="331" y="356.5">+cache: Boolean = true</text></g></g><g transform="translate(-316,-69) scale(1,1)"><g><path fill="none" stroke="none"/><text fill="#000000" stroke="none" font-family="Arial" font-size="13px" font-style="normal" font-weight="normal" text-decoration="none" x="331" y="371.5">+exception_handling_policy: ExceptionHandlingPolicy = INTERRUPT</text></g></g><g transform="translate(-316,-69) scale(1,1)"><path fill="none" stroke="#000000" d="M 809 393 L 736 373" stroke-miterlimit="10"/></g><g transform="translate(-316,-69) scale(1,1)"><path fill="#FFFFFF" stroke="none" d="M 746.9137785262554 371.62543160233963 L 736 373 L 744.6891734394736 379.74524016909294 L 757.2180823104115 378.8131732357292"/></g><g transform="translate(-316,-69) scale(1,1)"><path fill="none" stroke="#000000" d="M 746.9137785262554 371.62543160233963 L 736 373 L 744.6891734394736 379.74524016909294 L 757.2180823104115 378.8131732357292 L 746.9137785262554 371.62543160233963" stroke-miterlimit="10"/></g><g transform="translate(-316,-69) scale(1,1)"><path fill="none" stroke="#000000" d="M 809 294 L 736 300" stroke-miterlimit="10"/></g><g transform="translate(-316,-69) scale(1,1)"><path fill="#FFFFFF" stroke="none" d="M 745.7836958967963 294.9721481128607 L 736 300 L 746.4733458778895 303.3628895494939 L 757.9260640179172 298.19785775195203"/></g><g transform="translate(-316,-69) scale(1,1)"><path fill="none" stroke="#000000" d="M 745.7836958967963 294.9721481128607 L 736 300 L 746.4733458778895 303.3628895494939 L 757.9260640179172 298.19785775195203 L 745.7836958967963 294.9721481128607" stroke-miterlimit="10"/></g><g transform="translate(-316,-69) scale(1,1)"><rect fill="#C0C0C0" stroke="none" x="455" y="470" width="165.025390625" height="90" opacity="0.2"/></g><g transform="translate(-316,-69) scale(1,1)"><rect fill="#ffffff" stroke="none" x="448" y="463" width="165.025390625" height="90"/></g><g transform="translate(-316,-69) scale(1,1)"><path fill="none" stroke="#000000" d="M 448 463 L 613.025390625 463 L 613.025390625 553 L 448 553 L 448 463 Z Z" stroke-miterlimit="10"/></g><g transform="translate(-316,-69) scale(1,1)"><path fill="none" stroke="#000000" d="M 448 501 L 613.025390625 501" stroke-miterlimit="10"/></g><g transform="translate(-316,-69) scale(1,1)"><g><path fill="none" stroke="none"/><text fill="#000000" stroke="none" font-family="Arial" font-size="13px" font-style="normal" font-weight="normal" text-decoration="none" x="487.148681640625" y="480.5">«enumeration»</text></g></g><g transform="translate(-316,-69) scale(1,1)"><g><path fill="none" stroke="none"/><text fill="#000000" stroke="none" font-family="Arial" font-size="13px" font-style="normal" font-weight="bold" text-decoration="none" x="458.971435546875" y="495.5">ExceptionHandlingPolicy</text></g></g><g transform="translate(-316,-69) scale(1,1)"><g><path fill="none" stroke="none"/><text fill="#000000" stroke="none" font-family="Arial" font-size="13px" font-style="normal" font-weight="normal" text-decoration="none" x="453" y="518.5">IGNORE</text></g></g><g transform="translate(-316,-69) scale(1,1)"><g><path fill="none" stroke="none"/><text fill="#000000" stroke="none" font-family="Arial" font-size="13px" font-style="normal" font-weight="normal" text-decoration="none" x="453" y="533.5">INTERRUPT</text></g></g><g transform="translate(-316,-69) scale(1,1)"><g><path fill="none" stroke="none"/><text fill="#000000" stroke="none" font-family="Arial" font-size="13px" font-style="normal" font-weight="normal" text-decoration="none" x="453" y="548.5">RAISE</text></g></g><g transform="translate(-316,-69) scale(1,1)"><path fill="none" stroke="#000000" d="M 530 462 L 530 392" stroke-miterlimit="10"/></g><g transform="translate(-316,-69) scale(1,1)"><path fill="#FFFFFF" stroke="none" d="M 534.209517756016 402.16267485762415 L 530 392 L 525.790482243984 402.16267485762415 L 530 414"/></g><g transform="translate(-316,-69) scale(1,1)"><path fill="none" stroke="#000000" d="M 534.209517756016 402.16267485762415 L 530 392 L 525.790482243984 402.16267485762415 L 530 414 L 534.209517756016 402.16267485762415" stroke-miterlimit="10"/></g><g transform="translate(-316,-69) scale(1,1)"><g><path fill="none" stroke="none"/><text fill="#000000" stroke="none" font-family="Arial" font-size="13px" font-style="normal" font-weight="normal" text-decoration="none" x="538.726806640625" y="446.5">1</text></g></g><g transform="translate(-316,-69) scale(1,1)"><path fill="none" stroke="#000000" d="M 809 198 L 713 238" stroke-miterlimit="10"/></g><g transform="translate(-316,-69) scale(1,1)"><path fill="#FFFFFF" stroke="none" d="M 720.7618853470316 230.20557020305287 L 713 238 L 723.9999759285823 237.97698759877468 L 733.3076923076923 229.53846153846155"/></g><g transform="translate(-316,-69) scale(1,1)"><path fill="none" stroke="#000000" d="M 720.7618853470316 230.20557020305287 L 713 238 L 723.9999759285823 237.97698759877468 L 733.3076923076923 229.53846153846155 L 720.7618853470316 230.20557020305287" stroke-miterlimit="10"/></g><g transform="translate(-316,-69) scale(1,1)"><rect fill="#C0C0C0" stroke="none" x="434" y="86" width="206.640625" height="87" opacity="0.2"/></g><g transform="translate(-316,-69) scale(1,1)"><rect fill="#ffffff" stroke="none" x="427" y="79" width="206.640625" height="87"/></g><g transform="translate(-316,-69) scale(1,1)"><path fill="none" stroke="#000000" d="M 427 79 L 633.640625 79 L 633.640625 166 L 427 166 L 427 79 Z Z" stroke-miterlimit="10"/></g><g transform="translate(-316,-69) scale(1,1)"><path fill="none" stroke="#000000" d="M 427 104 L 633.640625 104" stroke-miterlimit="10"/></g><g transform="translate(-316,-69) scale(1,1)"><g><path fill="none" stroke="none"/><text fill="#000000" stroke="none" font-family="Arial" font-size="13px" font-style="normal" font-weight="bold" text-decoration="none" x="485.521728515625" y="98.5">FunctionLibrary</text></g></g><g transform="translate(-316,-69) scale(1,1)"><g><path fill="none" stroke="none"/><text fill="#000000" stroke="none" font-family="Arial" font-size="13px" font-style="normal" font-weight="normal" text-decoration="none" x="432" y="121.5">+title: String {unique}</text></g></g><g transform="translate(-316,-69) scale(1,1)"><g><path fill="none" stroke="none"/><text fill="#000000" stroke="none" font-family="Arial" font-size="13px" font-style="normal" font-weight="normal" text-decoration="none" x="432" y="136.5">+functions: FunctionDefinition[0..*]</text></g></g><g transform="translate(-316,-69) scale(1,1)"><path fill="none" stroke="#000000" d="M 530 167 L 530 238" stroke-miterlimit="10"/></g><g transform="translate(-316,-69) scale(1,1)"><path fill="#FFFFFF" stroke="none" d="M 525.790482243984 227.83732514237585 L 530 238 L 534.209517756016 227.83732514237585 L 530 216"/></g><g transform="translate(-316,-69) scale(1,1)"><path fill="none" stroke="#000000" d="M 525.790482243984 227.83732514237585 L 530 238 L 534.209517756016 227.83732514237585 L 530 216 L 525.790482243984 227.83732514237585" stroke-miterlimit="10"/></g><g transform="translate(-316,-69) scale(1,1)"><g><path fill="none" stroke="none"/><text fill="#000000" stroke="none" font-family="Arial" font-size="13px" font-style="normal" font-weight="normal" text-decoration="none" x="507.5" y="194.5">0..*</text></g></g><g transform="translate(-316,-69) scale(1,1)"><g><path fill="none" stroke="none"/><text fill="#000000" stroke="none" font-family="Arial" font-size="13px" font-style="normal" font-weight="normal" text-decoration="none" x="507.5" y="222.5">0..*</text></g></g></g></svg>