<svg version="1.1" xmlns="http://www.w3.org/2000/svg" xmlns:xlink="http://www.w3.org/1999/xlink" width="498.3564453125" height="620"><defs/><g><g transform="translate(-589,-86) scale(1,1)"><rect fill="#C0C0C0" stroke="none" x="871" y="263" width="213.3564453125" height="72" opacity="0.2"/></g><g transform="translate(-589,-86) scale(1,1)"><rect fill="#ffffff" stroke="none" x="864" y="256" width="213.3564453125" height="72"/></g><g transform="translate(-589,-86) scale(1,1)"><path fill="none" stroke="#000000" d="M 864 256 L 1077.3564453125 256 L 1077.3564453125 328 L 864 328 L 864 256 Z Z" stroke-miterlimit="10"/></g><g transform="translate(-589,-86) scale(1,1)"><path fill="none" stroke="#000000" d="M 864 281 L 1077.3564453125 281" stroke-miterlimit="10"/></g><g transform="translate(-589,-86) scale(1,1)"><g><path fill="none" stroke="none"/><text fill="#000000" stroke="none" font-family="Arial" font-size="13px" font-style="normal" font-weight="bold" text-decoration="none" x="877.0947265625" y="275.5">PythonModuleFunctionDefinition</text></g></g><g transform="translate(-589,-86) scale(1,1)"><g><path fill="none" stroke="none"/><text fill="#000000" stroke="none" font-family="Arial" font-size="13px" font-style="normal" font-weight="normal" text-decoration="none" x="869" y="298.5">+module: String</text></g></g><g transform="translate(-589,-86) scale(1,1)"><g><path fill="none" stroke="none"/><text fill="#000000" stroke="none" font-family="Arial" font-size="13px" font-style="normal" font-weight="normal" text-decoration="none" x="869" y="313.5">+function: String</text></g></g><g transform="translate(-589,-86) scale(1,1)"><rect fill="#C0C0C0" stroke="none" x="606" y="271" width="218.193359375" height="130" opacity="0.2"/></g><g transform="translate(-589,-86) scale(1,1)"><rect fill="#ffffff" stroke="none" x="599" y="264" width="218.193359375" height="130"/></g><g transform="translate(-589,-86) scale(1,1)"><path fill="none" stroke="#000000" d="M 599 264 L 817.193359375 264 L 817.193359375 394 L 599 394 L 599 264 Z Z" stroke-miterlimit="10"/></g><g transform="translate(-589,-86) scale(1,1)"><path fill="none" stroke="#000000" d="M 599 289 L 817.193359375 289" stroke-miterlimit="10"/></g><g transform="translate(-589,-86) scale(1,1)"><path fill="none" stroke="#000000" d="M 599 372 L 817.193359375 372" stroke-miterlimit="10"/></g><g transform="translate(-589,-86) scale(1,1)"><g><path fill="none" stroke="none"/><text fill="#000000" stroke="none" font-family="Arial" font-size="13px" font-style="italic" font-weight="bold" text-decoration="none" x="656.068115234375" y="283.5">FunctionDefinition</text></g></g><g transform="translate(-589,-86) scale(1,1)"><g><path fill="none" stroke="none"/><text fill="#000000" stroke="none" font-family="Arial" font-size="13px" font-style="normal" font-weight="normal" text-decoration="none" x="604" y="306.5">+title: String {unique}</text></g></g><g transform="translate(-589,-86) scale(1,1)"><g><path fill="none" stroke="none"/><text fill="#000000" stroke="none" font-family="Arial" font-size="13px" font-style="normal" font-weight="normal" text-decoration="none" x="604" y="321.5">+description: String</text></g></g><g transform="translate(-589,-86) scale(1,1)"><g><path fill="none" stroke="none"/><text fill="#000000" stroke="none" font-family="Arial" font-size="13px" font-style="normal" font-weight="normal" text-decoration="none" x="604" y="336.5">+is_context_required: Boolean</text></g></g><g transform="translate(-589,-86) scale(1,1)"><g><path fill="none" stroke="none"/><text fill="#000000" stroke="none" font-family="Arial" font-size="13px" font-style="normal" font-weight="normal" text-decoration="none" x="604" y="351.5">+is_returns_value: Boolean</text></g></g><g transform="translate(-589,-86) scale(1,1)"><g><path fill="none" stroke="none"/><text fill="#000000" stroke="none" font-family="Arial" font-size="13px" font-style="normal" font-weight="normal" text-decoration="none" x="604" y="366.5">+arguments: FunctionArgument[0..*]</text></g></g><g transform="translate(-589,-86) scale(1,1)"><g><path fill="none" stroke="none"/><text fill="#000000" stroke="none" font-family="Arial" font-size="13px" font-style="normal" font-weight="normal" text-decoration="none" x="604" y="389.5">+call()</text></g></g><g transform="translate(-589,-86) scale(1,1)"><path fill="none" stroke="#000000" d="M 863 307 L 818 313" stroke-miterlimit="10"/></g><g transform="translate(-589,-86) scale(1,1)"><path fill="#FFFFFF" stroke="none" d="M 837.0343626760374 301.96854327311786 L 818 313 L 839.2597447817345 318.6589090658459"/></g><g transform="translate(-589,-86) scale(1,1)"><path fill="none" stroke="#000000" d="M 837.0343626760374 301.96854327311786 L 818 313 L 839.2597447817345 318.6589090658459 L 837.0343626760374 301.96854327311786" stroke-miterlimit="10"/></g><g transform="translate(-589,-86) scale(1,1)"><rect fill="#C0C0C0" stroke="none" x="877" y="375" width="200.36279296875" height="57" opacity="0.2"/></g><g transform="translate(-589,-86) scale(1,1)"><rect fill="#ffffff" stroke="none" x="870" y="368" width="200.36279296875" height="57"/></g><g transform="translate(-589,-86) scale(1,1)"><path fill="none" stroke="#000000" d="M 870 368 L 1070.36279296875 368 L 1070.36279296875 425 L 870 425 L 870 368 Z Z" stroke-miterlimit="10"/></g><g transform="translate(-589,-86) scale(1,1)"><path fill="none" stroke="#000000" d="M 870 393 L 1070.36279296875 393" stroke-miterlimit="10"/></g><g transform="translate(-589,-86) scale(1,1)"><g><path fill="none" stroke="none"/><text fill="#000000" stroke="none" font-family="Arial" font-size="13px" font-style="normal" font-weight="bold" text-decoration="none" x="882.37744140625" y="387.5">PythonCodeFunctionDefinition</text></g></g><g transform="translate(-589,-86) scale(1,1)"><g><path fill="none" stroke="none"/><text fill="#000000" stroke="none" font-family="Arial" font-size="13px" font-style="normal" font-weight="normal" text-decoration="none" x="875" y="410.5">+code: String</text></g></g><g transform="translate(-589,-86) scale(1,1)"><path fill="none" stroke="#000000" d="M 869 370 L 818 357" stroke-miterlimit="10"/></g><g transform="translate(-589,-86) scale(1,1)"><path fill="#FFFFFF" stroke="none" d="M 839.7750922743813 353.8622689021879 L 818 357 L 835.6160263449807 370.178604471375"/></g><g transform="translate(-589,-86) scale(1,1)"><path fill="none" stroke="#000000" d="M 839.7750922743813 353.8622689021879 L 818 357 L 835.6160263449807 370.178604471375 L 839.7750922743813 353.8622689021879" stroke-miterlimit="10"/></g><g transform="translate(-589,-86) scale(1,1)"><rect fill="#C0C0C0" stroke="none" x="611" y="103" width="208.80517578125" height="72" opacity="0.2"/></g><g transform="translate(-589,-86) scale(1,1)"><rect fill="#ffffff" stroke="none" x="604" y="96" width="208.80517578125" height="72"/></g><g transform="translate(-589,-86) scale(1,1)"><path fill="none" stroke="#000000" d="M 604 96 L 812.80517578125 96 L 812.80517578125 168 L 604 168 L 604 96 Z Z" stroke-miterlimit="10"/></g><g transform="translate(-589,-86) scale(1,1)"><path fill="none" stroke="#000000" d="M 604 121 L 812.80517578125 121" stroke-miterlimit="10"/></g><g transform="translate(-589,-86) scale(1,1)"><g><path fill="none" stroke="none"/><text fill="#000000" stroke="none" font-family="Arial" font-size="13px" font-style="normal" font-weight="bold" text-decoration="none" x="663.60400390625" y="115.5">FunctionLibrary</text></g></g><g transform="translate(-589,-86) scale(1,1)"><g><path fill="none" stroke="none"/><text fill="#000000" stroke="none" font-family="Arial" font-size="13px" font-style="normal" font-weight="normal" text-decoration="none" x="609" y="138.5">+title: String {unique}</text></g></g><g transform="translate(-589,-86) scale(1,1)"><g><path fill="none" stroke="none"/><text fill="#000000" stroke="none" font-family="Arial" font-size="13px" font-style="normal" font-weight="normal" text-decoration="none" x="609" y="153.5">+functions: FunctionDefinition[0..*]</text></g></g><g transform="translate(-589,-86) scale(1,1)"><path fill="none" stroke="#000000" d="M 708 263 L 708 169" stroke-miterlimit="10"/></g><g transform="translate(-589,-86) scale(1,1)"><path fill="#FFFFFF" stroke="none" d="M 712.209517756016 179.16267485762415 L 708 169 L 703.790482243984 179.16267485762415 L 708 191"/></g><g transform="translate(-589,-86) scale(1,1)"><path fill="none" stroke="#000000" d="M 712.209517756016 179.16267485762415 L 708 169 L 703.790482243984 179.16267485762415 L 708 191 L 712.209517756016 179.16267485762415" stroke-miterlimit="10"/></g><g transform="translate(-589,-86) scale(1,1)"><g><path fill="none" stroke="none"/><text fill="#000000" stroke="none" font-family="Arial" font-size="13px" font-style="normal" font-weight="normal" text-decoration="none" x="640.5" y="243.5">+functions</text></g></g><g transform="translate(-589,-86) scale(1,1)"><g><path fill="none" stroke="none"/><text fill="#000000" stroke="none" font-family="Arial" font-size="13px" font-style="normal" font-weight="normal" text-decoration="none" x="710.5" y="247.5">0..*</text></g></g><g transform="translate(-589,-86) scale(1,1)"><g><path fill="none" stroke="none"/><text fill="#000000" stroke="none" font-family="Arial" font-size="13px" font-style="normal" font-weight="normal" text-decoration="none" x="641.5" y="195.5">+libraries</text></g></g><g transform="translate(-589,-86) scale(1,1)"><g><path fill="none" stroke="none"/><text fill="#000000" stroke="none" font-family="Arial" font-size="13px" font-style="normal" font-weight="normal" text-decoration="none" x="710.5" y="196.5">0..*</text></g></g><g transform="translate(-589,-86) scale(1,1)"><rect fill="#C0C0C0" stroke="none" x="653" y="503" width="125.263671875" height="72" opacity="0.2"/></g><g transform="translate(-589,-86) scale(1,1)"><rect fill="#ffffff" stroke="none" x="646" y="496" width="125.263671875" height="72"/></g><g transform="translate(-589,-86) scale(1,1)"><path fill="none" stroke="#000000" d="M 646 496 L 771.263671875 496 L 771.263671875 568 L 646 568 L 646 496 Z Z" stroke-miterlimit="10"/></g><g transform="translate(-589,-86) scale(1,1)"><path fill="none" stroke="#000000" d="M 646 521 L 771.263671875 521" stroke-miterlimit="10"/></g><g transform="translate(-589,-86) scale(1,1)"><g><path fill="none" stroke="none"/><text fill="#000000" stroke="none" font-family="Arial" font-size="13px" font-style="normal" font-weight="bold" text-decoration="none" x="655.52099609375" y="515.5">FunctionArgument</text></g></g><g transform="translate(-589,-86) scale(1,1)"><g><path fill="none" stroke="none"/><text fill="#000000" stroke="none" font-family="Arial" font-size="13px" font-style="normal" font-weight="normal" text-decoration="none" x="651" y="538.5">+name</text></g></g><g transform="translate(-589,-86) scale(1,1)"><g><path fill="none" stroke="none"/><text fill="#000000" stroke="none" font-family="Arial" font-size="13px" font-style="normal" font-weight="normal" text-decoration="none" x="651" y="553.5">+description</text></g></g><g transform="translate(-589,-86) scale(1,1)"><path fill="none" stroke="#000000" d="M 708 495 L 708 395" stroke-miterlimit="10"/></g><g transform="translate(-589,-86) scale(1,1)"><path fill="#000000" stroke="none" d="M 712.209517756016 405.16267485762415 L 708 395 L 703.790482243984 405.16267485762415 L 708 417"/></g><g transform="translate(-589,-86) scale(1,1)"><path fill="none" stroke="#000000" d="M 712.209517756016 405.16267485762415 L 708 395 L 703.790482243984 405.16267485762415 L 708 417 L 712.209517756016 405.16267485762415" stroke-miterlimit="10"/></g><g transform="translate(-589,-86) scale(1,1)"><g><path fill="none" stroke="none"/><text fill="#000000" stroke="none" font-family="Arial" font-size="13px" font-style="normal" font-weight="normal" text-decoration="none" x="662.5" y="448.5">+arguments</text></g></g><g transform="translate(-589,-86) scale(1,1)"><g><path fill="none" stroke="none"/><text fill="#000000" stroke="none" font-family="Arial" font-size="13px" font-style="normal" font-weight="normal" text-decoration="none" x="710.5" y="479.5">0..*</text></g></g><g transform="translate(-589,-86) scale(1,1)"><rect fill="#C0C0C0" stroke="none" x="631" y="631" width="168.60546875" height="72" opacity="0.2"/></g><g transform="translate(-589,-86) scale(1,1)"><rect fill="#ffffff" stroke="none" x="624" y="624" width="168.60546875" height="72"/></g><g transform="translate(-589,-86) scale(1,1)"><path fill="none" stroke="#000000" d="M 624 624 L 792.60546875 624 L 792.60546875 696 L 624 696 L 624 624 Z Z" stroke-miterlimit="10"/></g><g transform="translate(-589,-86) scale(1,1)"><path fill="none" stroke="#000000" d="M 624 649 L 792.60546875 649" stroke-miterlimit="10"/></g><g transform="translate(-589,-86) scale(1,1)"><g><path fill="none" stroke="none"/><text fill="#000000" stroke="none" font-family="Arial" font-size="13px" font-style="normal" font-weight="bold" text-decoration="none" x="634.958740234375" y="643.5">FunctionArgumentChoice</text></g></g><g transform="translate(-589,-86) scale(1,1)"><g><path fill="none" stroke="none"/><text fill="#000000" stroke="none" font-family="Arial" font-size="13px" font-style="normal" font-weight="normal" text-decoration="none" x="629" y="666.5">+title</text></g></g><g transform="translate(-589,-86) scale(1,1)"><g><path fill="none" stroke="none"/><text fill="#000000" stroke="none" font-family="Arial" font-size="13px" font-style="normal" font-weight="normal" text-decoration="none" x="629" y="681.5">+value</text></g></g><g transform="translate(-589,-86) scale(1,1)"><path fill="none" stroke="#000000" d="M 708 623 L 708 569" stroke-miterlimit="10"/></g><g transform="translate(-589,-86) scale(1,1)"><path fill="#000000" stroke="none" d="M 712.209517756016 579.1626748576241 L 708 569 L 703.790482243984 579.1626748576241 L 708 591"/></g><g transform="translate(-589,-86) scale(1,1)"><path fill="none" stroke="#000000" d="M 712.209517756016 579.1626748576241 L 708 569 L 703.790482243984 579.1626748576241 L 708 591 L 712.209517756016 579.1626748576241" stroke-miterlimit="10"/></g><g transform="translate(-589,-86) scale(1,1)"><g><path fill="none" stroke="none"/><text fill="#000000" stroke="none" font-family="Arial" font-size="13px" font-style="normal" font-weight="normal" text-decoration="none" x="632.5" y="602.5">+choices</text></g></g><g transform="translate(-589,-86) scale(1,1)"><g><path fill="none" stroke="none"/><text fill="#000000" stroke="none" font-family="Arial" font-size="13px" font-style="normal" font-weight="normal" text-decoration="none" x="710.5" y="607.5">0..*</text></g></g></g></svg>