<svg version="1.1" xmlns="http://www.w3.org/2000/svg" xmlns:xlink="http://www.w3.org/1999/xlink" width="274.33056640625" height="721"><defs/><g><g transform="translate(-513,2) scale(1,1)"><rect fill="#C0C0C0" stroke="none" x="530" y="327" width="254.33056640625" height="77" opacity="0.2"/></g><g transform="translate(-513,2) scale(1,1)"><rect fill="#ffffff" stroke="none" x="523" y="320" width="254.33056640625" height="77"/></g><g transform="translate(-513,2) scale(1,1)"><path fill="none" stroke="#000000" d="M 523 320 L 777.33056640625 320 L 777.33056640625 397 L 523 397 L 523 320 Z Z" stroke-miterlimit="10"/></g><g transform="translate(-513,2) scale(1,1)"><path fill="none" stroke="#000000" d="M 523 345 L 777.33056640625 345" stroke-miterlimit="10"/></g><g transform="translate(-513,2) scale(1,1)"><g><path fill="none" stroke="none"/><text fill="#000000" stroke="none" font-family="Arial" font-size="13px" font-style="normal" font-weight="bold" text-decoration="none" x="599.948974609375" y="339.5">ProgramInterface</text></g></g><g transform="translate(-513,2) scale(1,1)"><g><path fill="none" stroke="none"/><text fill="#000000" stroke="none" font-family="Arial" font-size="13px" font-style="normal" font-weight="normal" text-decoration="none" x="528" y="362.5">+title: String {unique}</text></g></g><g transform="translate(-513,2) scale(1,1)"><g><path fill="none" stroke="none"/><text fill="#000000" stroke="none" font-family="Arial" font-size="13px" font-style="normal" font-weight="normal" text-decoration="none" x="528" y="377.5">+environment: ExecutionEnvironment[0..1]</text></g></g><g transform="translate(-513,2) scale(1,1)"><g><path fill="none" stroke="none"/><text fill="#000000" stroke="none" font-family="Arial" font-size="13px" font-style="normal" font-weight="normal" text-decoration="none" x="528" y="392.5">+arguments: ProgramArgument[1..*]</text></g></g><g transform="translate(-513,2) scale(1,1)"><rect fill="#C0C0C0" stroke="none" x="530" y="183" width="254.33056640625" height="77" opacity="0.2"/></g><g transform="translate(-513,2) scale(1,1)"><rect fill="#ffffff" stroke="none" x="523" y="176" width="254.33056640625" height="77"/></g><g transform="translate(-513,2) scale(1,1)"><path fill="none" stroke="#000000" d="M 523 176 L 777.33056640625 176 L 777.33056640625 253 L 523 253 L 523 176 Z Z" stroke-miterlimit="10"/></g><g transform="translate(-513,2) scale(1,1)"><path fill="none" stroke="#000000" d="M 523 201 L 777.33056640625 201" stroke-miterlimit="10"/></g><g transform="translate(-513,2) scale(1,1)"><g><path fill="none" stroke="none"/><text fill="#000000" stroke="none" font-family="Arial" font-size="13px" font-style="normal" font-weight="bold" text-decoration="none" x="625.2412109375" y="195.5">Program</text></g></g><g transform="translate(-513,2) scale(1,1)"><g><path fill="none" stroke="none"/><text fill="#000000" stroke="none" font-family="Arial" font-size="13px" font-style="normal" font-weight="normal" text-decoration="none" x="528" y="218.5">+title</text></g></g><g transform="translate(-513,2) scale(1,1)"><g><path fill="none" stroke="none"/><text fill="#000000" stroke="none" font-family="Arial" font-size="13px" font-style="normal" font-weight="normal" text-decoration="none" x="528" y="233.5">+code</text></g></g><g transform="translate(-513,2) scale(1,1)"><g><path fill="none" stroke="none"/><text fill="#000000" stroke="none" font-family="Arial" font-size="13px" font-style="normal" font-weight="normal" text-decoration="none" x="528" y="248.5">+environment: ExecutionEnvironment[0..1]</text></g></g><g transform="translate(-513,2) scale(1,1)"><rect fill="#C0C0C0" stroke="none" x="530" y="15" width="254.33056640625" height="130" opacity="0.2"/></g><g transform="translate(-513,2) scale(1,1)"><rect fill="#ffffff" stroke="none" x="523" y="8" width="254.33056640625" height="130"/></g><g transform="translate(-513,2) scale(1,1)"><path fill="none" stroke="#000000" d="M 523 8 L 777.33056640625 8 L 777.33056640625 138 L 523 138 L 523 8 Z Z" stroke-miterlimit="10"/></g><g transform="translate(-513,2) scale(1,1)"><path fill="none" stroke="#000000" d="M 523 33 L 777.33056640625 33" stroke-miterlimit="10"/></g><g transform="translate(-513,2) scale(1,1)"><path fill="none" stroke="#000000" d="M 523 116 L 777.33056640625 116" stroke-miterlimit="10"/></g><g transform="translate(-513,2) scale(1,1)"><g><path fill="none" stroke="none"/><text fill="#000000" stroke="none" font-family="Arial" font-size="13px" font-style="normal" font-weight="bold" text-decoration="none" x="603.560791015625" y="27.5">ProgramVersion</text></g></g><g transform="translate(-513,2) scale(1,1)"><g><path fill="none" stroke="none"/><text fill="#000000" stroke="none" font-family="Arial" font-size="13px" font-style="normal" font-weight="normal" text-decoration="none" x="528" y="50.5">+title: String</text></g></g><g transform="translate(-513,2) scale(1,1)"><g><path fill="none" stroke="none"/><text fill="#000000" stroke="none" font-family="Arial" font-size="13px" font-style="normal" font-weight="normal" text-decoration="none" x="528" y="65.5">+description: String</text></g></g><g transform="translate(-513,2) scale(1,1)"><g><path fill="none" stroke="none"/><text fill="#000000" stroke="none" font-family="Arial" font-size="13px" font-style="normal" font-weight="normal" text-decoration="none" x="528" y="80.5">+environment: ExecutionEnvironment[0..1]</text></g></g><g transform="translate(-513,2) scale(1,1)"><g><path fill="none" stroke="none"/><text fill="#000000" stroke="none" font-family="Arial" font-size="13px" font-style="normal" font-weight="normal" text-decoration="none" x="528" y="95.5">+entry_point: Node</text></g></g><g transform="translate(-513,2) scale(1,1)"><g><path fill="none" stroke="none"/><text fill="#000000" stroke="none" font-family="Arial" font-size="13px" font-style="normal" font-weight="normal" text-decoration="none" x="528" y="110.5">+is_default: Boolean = false</text></g></g><g transform="translate(-513,2) scale(1,1)"><g><path fill="none" stroke="none"/><text fill="#000000" stroke="none" font-family="Arial" font-size="13px" font-style="normal" font-weight="normal" text-decoration="none" x="528" y="133.5">+execute()</text></g></g><g transform="translate(-513,2) scale(1,1)"><path fill="none" stroke="#000000" d="M 650 254 L 650 319" stroke-miterlimit="10"/></g><g transform="translate(-513,2) scale(1,1)"><path fill="#000000" stroke="none" d="M 645.790482243984 308.83732514237585 L 650 319 L 654.209517756016 308.83732514237585 L 650 297"/></g><g transform="translate(-513,2) scale(1,1)"><path fill="none" stroke="#000000" d="M 645.790482243984 308.83732514237585 L 650 319 L 654.209517756016 308.83732514237585 L 650 297 L 645.790482243984 308.83732514237585" stroke-miterlimit="10"/></g><g transform="translate(-513,2) scale(1,1)"><path fill="none" stroke="#000000" d="M 650 139 L 650 175" stroke-miterlimit="10"/></g><g transform="translate(-513,2) scale(1,1)"><path fill="#000000" stroke="none" d="M 645.790482243984 164.83732514237585 L 650 175 L 654.209517756016 164.83732514237585 L 650 153"/></g><g transform="translate(-513,2) scale(1,1)"><path fill="none" stroke="#000000" d="M 645.790482243984 164.83732514237585 L 650 175 L 654.209517756016 164.83732514237585 L 650 153 L 645.790482243984 164.83732514237585" stroke-miterlimit="10"/></g><g transform="translate(-513,2) scale(1,1)"><rect fill="#C0C0C0" stroke="none" x="563" y="479" width="188.5498046875" height="77" opacity="0.2"/></g><g transform="translate(-513,2) scale(1,1)"><rect fill="#ffffff" stroke="none" x="556" y="472" width="188.5498046875" height="77"/></g><g transform="translate(-513,2) scale(1,1)"><path fill="none" stroke="#000000" d="M 556 472 L 744.5498046875 472 L 744.5498046875 549 L 556 549 L 556 472 Z Z" stroke-miterlimit="10"/></g><g transform="translate(-513,2) scale(1,1)"><path fill="none" stroke="#000000" d="M 556 497 L 744.5498046875 497" stroke-miterlimit="10"/></g><g transform="translate(-513,2) scale(1,1)"><g><path fill="none" stroke="none"/><text fill="#000000" stroke="none" font-family="Arial" font-size="13px" font-style="normal" font-weight="bold" text-decoration="none" x="597.17041015625" y="491.5">ProgramArgument</text></g></g><g transform="translate(-513,2) scale(1,1)"><g><path fill="none" stroke="none"/><text fill="#000000" stroke="none" font-family="Arial" font-size="13px" font-style="normal" font-weight="normal" text-decoration="none" x="561" y="514.5">+name: String</text></g></g><g transform="translate(-513,2) scale(1,1)"><g><path fill="none" stroke="none"/><text fill="#000000" stroke="none" font-family="Arial" font-size="13px" font-style="normal" font-weight="normal" text-decoration="none" x="561" y="529.5">+content_type: ContentType</text></g></g><g transform="translate(-513,2) scale(1,1)"><g><path fill="none" stroke="none"/><text fill="#000000" stroke="none" font-family="Arial" font-size="13px" font-style="normal" font-weight="normal" text-decoration="none" x="561" y="544.5">+fields: ProgramArgumentField</text></g></g><g transform="translate(-513,2) scale(1,1)"><path fill="none" stroke="#000000" d="M 650 471 L 650 398" stroke-miterlimit="10"/></g><g transform="translate(-513,2) scale(1,1)"><path fill="#000000" stroke="none" d="M 654.209517756016 408.16267485762415 L 650 398 L 645.790482243984 408.16267485762415 L 650 420"/></g><g transform="translate(-513,2) scale(1,1)"><path fill="none" stroke="#000000" d="M 654.209517756016 408.16267485762415 L 650 398 L 645.790482243984 408.16267485762415 L 650 420 L 654.209517756016 408.16267485762415" stroke-miterlimit="10"/></g><g transform="translate(-513,2) scale(1,1)"><g><path fill="none" stroke="none"/><text fill="#000000" stroke="none" font-family="Arial" font-size="13px" font-style="normal" font-weight="normal" text-decoration="none" x="600.5" y="432.5">+arguments</text></g></g><g transform="translate(-513,2) scale(1,1)"><g><path fill="none" stroke="none"/><text fill="#000000" stroke="none" font-family="Arial" font-size="13px" font-style="normal" font-weight="normal" text-decoration="none" x="652.5" y="455.5">1..*</text></g></g><g transform="translate(-513,2) scale(1,1)"><rect fill="#C0C0C0" stroke="none" x="543" y="639" width="229.53662109375" height="77" opacity="0.2"/></g><g transform="translate(-513,2) scale(1,1)"><rect fill="#ffffff" stroke="none" x="536" y="632" width="229.53662109375" height="77"/></g><g transform="translate(-513,2) scale(1,1)"><path fill="none" stroke="#000000" d="M 536 632 L 765.53662109375 632 L 765.53662109375 709 L 536 709 L 536 632 Z Z" stroke-miterlimit="10"/></g><g transform="translate(-513,2) scale(1,1)"><path fill="none" stroke="#000000" d="M 536 657 L 765.53662109375 657" stroke-miterlimit="10"/></g><g transform="translate(-513,2) scale(1,1)"><g><path fill="none" stroke="none"/><text fill="#000000" stroke="none" font-family="Arial" font-size="13px" font-style="normal" font-weight="bold" text-decoration="none" x="583.5751953125" y="651.5">ProgramArgumentField</text></g></g><g transform="translate(-513,2) scale(1,1)"><g><path fill="none" stroke="none"/><text fill="#000000" stroke="none" font-family="Arial" font-size="13px" font-style="normal" font-weight="normal" text-decoration="none" x="541" y="674.5">+name: String</text></g></g><g transform="translate(-513,2) scale(1,1)"><g><path fill="none" stroke="none"/><text fill="#000000" stroke="none" font-family="Arial" font-size="13px" font-style="normal" font-weight="normal" text-decoration="none" x="541" y="689.5">+title: String</text></g></g><g transform="translate(-513,2) scale(1,1)"><g><path fill="none" stroke="none"/><text fill="#000000" stroke="none" font-family="Arial" font-size="13px" font-style="normal" font-weight="normal" text-decoration="none" x="541" y="704.5">+variable_definition: VariableDefinition</text></g></g><g transform="translate(-513,2) scale(1,1)"><path fill="none" stroke="#000000" d="M 650 631 L 650 550" stroke-miterlimit="10"/></g><g transform="translate(-513,2) scale(1,1)"><path fill="#000000" stroke="none" d="M 654.209517756016 560.1626748576241 L 650 550 L 645.790482243984 560.1626748576241 L 650 572"/></g><g transform="translate(-513,2) scale(1,1)"><path fill="none" stroke="#000000" d="M 654.209517756016 560.1626748576241 L 650 550 L 645.790482243984 560.1626748576241 L 650 572 L 654.209517756016 560.1626748576241" stroke-miterlimit="10"/></g></g></svg>